# xmcd
#
# Track frame offsets:
#	150
#	12561
#	27948
#	41923
#	57764
#	69833
#	84410
#	99725
#	114624
#	125349
#	137102
#	150467
#	165632
#	183863
#	197841
#	208631
#	223986
#	238783
#	251043
#	264718
#
# Disc length: 3724 seconds
#
# Revision: 1
# Processed by: cddbd v1.4PL0 Copyright (c) Steve Scherf et al.
# Submitted via: audiograbber 1.80
#
DISCID=240e8a14
DTITLE=Dolly Parton - Queen of Country CD1
DYEAR=1900
DGENRE=
TTITLE0=9 To 5
TTITLE1=Applejack
TTITLE2=I Will Always Love You
TTITLE3=Heartbreaker
TTITLE4=Jolene
TTITLE5=Don't Call It Love
TTITLE6=We'll Sing In The Sunshine
TTITLE7=But You Know I Love You
TTITLE8=Love Is Like A Butterfly
TTITLE9=Baby I'm Burning
TTITLE10=Here You Come Again
TTITLE11=Nickles And Dimes
TTITLE12=Do I Ever Cross Yor Mind
TTITLE13=Coat Of Many Coulors
TTITLE14=All I Can Do
TTITLE15=Think About Love
TTITLE16=You're The Only One
TTITLE17=The Bargain Store
TTITLE18=Working Girl
TTITLE19=Two Doors Down
EXTD=
EXTT0=
EXTT1=
EXTT2=
EXTT3=
EXTT4=
EXTT5=
EXTT6=
EXTT7=
EXTT8=
EXTT9=
EXTT10=
EXTT11=
EXTT12=
EXTT13=
EXTT14=
EXTT15=
EXTT16=
EXTT17=
EXTT18=
EXTT19=
PLAYORDER=
